<?xml version="1.0" encoding="UTF-8"?>
<svg xmlns="http://www.w3.org/2000/svg" xmlns:xlink="http://www.w3.org/1999/xlink" width="600px" height="310px" viewBox="0 0 600 310" version="1.1">
<g id="surface1">
<path style=" stroke:none;fill-rule:evenodd;fill:rgb(0%,0%,0%);fill-opacity:1;" d="M 0 0.769531 L 600 0.769531 L 600 309.230469 L 0 309.230469 Z M 0 0.769531 "/>
<path style=" stroke:none;fill-rule:evenodd;fill:rgb(100%,100%,100%);fill-opacity:1;" d="M 161.699219 119.066406 L 161.550781 77.578125 L 139.050781 77.578125 L 139.199219 119.066406 L 150.449219 134.949219 Z M 161.699219 119.066406 "/>
<path style=" stroke:none;fill-rule:evenodd;fill:rgb(100%,100%,100%);fill-opacity:1;" d="M 139.199219 190.164062 L 139.199219 231.804688 L 161.699219 231.804688 L 161.699219 190.164062 L 150.449219 174.277344 Z M 139.199219 190.164062 "/>
<path style=" stroke:none;fill-rule:evenodd;fill:rgb(0%,94.901961%,90.196078%);fill-opacity:1;" d="M 161.699219 190.164062 L 185.398438 223.785156 L 203.550781 210.214844 L 179.851562 176.59375 L 161.699219 170.578125 Z M 161.699219 190.164062 "/>
<path style=" stroke:none;fill-rule:evenodd;fill:rgb(0%,94.901961%,90.196078%);fill-opacity:1;" d="M 139.199219 119.066406 L 115.351562 85.441406 L 97.199219 99.015625 L 120.898438 132.636719 L 139.199219 138.652344 Z M 139.199219 119.066406 "/>
<path style=" stroke:none;fill-rule:evenodd;fill:rgb(0%,72.54902%,94.509804%);fill-opacity:1;" d="M 120.898438 132.636719 L 82.5 119.835938 L 75.601562 141.734375 L 114 154.691406 L 132.148438 148.523438 Z M 120.898438 132.636719 "/>
<path style=" stroke:none;fill-rule:evenodd;fill:rgb(0%,72.54902%,94.509804%);fill-opacity:1;" d="M 168.601562 160.707031 L 179.851562 176.59375 L 218.25 189.394531 L 225.148438 167.492188 L 186.75 154.691406 Z M 168.601562 160.707031 "/>
<path style=" stroke:none;fill-rule:evenodd;fill:rgb(83.921569%,22.745098%,100%);fill-opacity:1;" d="M 186.75 154.691406 L 225.148438 141.734375 L 218.25 119.835938 L 179.851562 132.636719 L 168.601562 148.523438 Z M 186.75 154.691406 "/>
<path style=" stroke:none;fill-rule:evenodd;fill:rgb(83.921569%,22.745098%,100%);fill-opacity:1;" d="M 114 154.691406 L 75.601562 167.492188 L 82.5 189.394531 L 120.898438 176.59375 L 132.148438 160.707031 Z M 114 154.691406 "/>
<path style=" stroke:none;fill-rule:evenodd;fill:rgb(98.431373%,0.392157%,35.686275%);fill-opacity:1;" d="M 120.898438 176.59375 L 97.199219 210.214844 L 115.351562 223.785156 L 139.199219 190.164062 L 139.199219 170.578125 Z M 120.898438 176.59375 "/>
<path style=" stroke:none;fill-rule:evenodd;fill:rgb(98.431373%,0.392157%,35.686275%);fill-opacity:1;" d="M 179.851562 132.636719 L 203.550781 99.015625 L 185.398438 85.441406 L 161.699219 119.066406 L 161.699219 138.652344 Z M 179.851562 132.636719 "/>
<path style=" stroke:none;fill-rule:evenodd;fill:rgb(100%,100%,100%);fill-opacity:1;" d="M 309.148438 116.90625 L 309.148438 170.886719 C 309.148438 182.761719 299.699219 192.476562 288.148438 192.476562 L 288.148438 181.679688 C 294 181.679688 298.648438 176.902344 298.648438 170.886719 L 298.648438 116.90625 Z M 500.851562 127.703125 L 524.550781 127.703125 L 524.550781 116.90625 L 466.800781 116.90625 L 466.800781 127.703125 L 490.351562 127.703125 L 490.351562 192.476562 L 500.851562 192.476562 Z M 435.148438 116.90625 L 435.148438 170.886719 C 435.148438 176.902344 430.5 181.679688 424.648438 181.679688 C 418.800781 181.679688 414.148438 176.902344 414.148438 170.886719 L 414.148438 138.496094 C 414.148438 126.621094 404.699219 116.90625 393.148438 116.90625 C 381.601562 116.90625 372.148438 126.621094 372.148438 138.496094 L 372.148438 170.886719 C 372.148438 176.902344 367.5 181.679688 361.648438 181.679688 C 355.800781 181.679688 351.148438 176.902344 351.148438 170.886719 L 351.148438 116.90625 L 340.648438 116.90625 L 340.648438 170.886719 C 340.648438 182.761719 350.101562 192.476562 361.648438 192.476562 C 373.199219 192.476562 382.648438 182.761719 382.648438 170.886719 L 382.648438 138.496094 C 382.648438 132.484375 387.300781 127.703125 393.148438 127.703125 C 399 127.703125 403.648438 132.484375 403.648438 138.496094 L 403.648438 170.886719 C 403.648438 182.761719 413.101562 192.476562 424.648438 192.476562 C 436.199219 192.476562 445.648438 182.761719 445.648438 170.886719 L 445.648438 116.90625 Z M 435.148438 116.90625 "/>
</g>
</svg>
